<?xml version="1.0" standalone="no"?>
<!DOCTYPE svg PUBLIC "-//W3C//DTD SVG 20010904//EN"
 "http://www.w3.org/TR/2001/REC-SVG-20010904/DTD/svg10.dtd">
<svg version="1.0" xmlns="http://www.w3.org/2000/svg"
 width="500.000000pt" height="500.000000pt" viewBox="0 0 500.000000 500.000000"
 preserveAspectRatio="xMidYMid meet">
<metadata>
Created by potrace 1.14, written by Peter Selinger 2001-2017
</metadata>
<g transform="translate(0.000000,500.000000) scale(0.100000,-0.100000)"
fill="#000000" stroke="none">
<path d="M2070 3535 l0 -45 -50 0 -50 0 0 -55 0 -55 -45 0 -45 0 0 -520 0
-520 520 0 520 0 0 50 0 50 50 0 50 0 0 50 0 50 45 0 45 0 0 520 0 520 -520 0
-520 0 0 -45z m1020 -475 l0 -500 -35 0 -35 0 -2 463 -3 462 -462 3 -463 2 0
35 0 35 500 0 500 0 0 -500z m-1020 360 c0 -39 -1 -40 -35 -40 -34 0 -35 1
-35 40 0 39 1 40 35 40 34 0 35 -1 35 -40z m920 -410 l0 -450 -35 0 -35 0 0
410 0 410 -415 0 -415 0 0 40 0 40 450 0 450 0 0 -450z m-1020 -110 l0 -460
465 0 465 0 0 -40 0 -40 -500 0 -500 0 0 500 0 500 35 0 35 0 0 -460z m100 50
l0 -410 415 0 415 0 0 -40 0 -40 -450 0 -450 0 0 450 0 450 35 0 35 0 0 -410z
m830 10 l0 -400 -405 0 -405 0 0 400 0 400 405 0 405 0 0 -400z m90 -460 c0
-39 -1 -40 -35 -40 -34 0 -35 1 -35 40 0 39 1 40 35 40 34 0 35 -1 35 -40z"/>
<path d="M2210 2785 l0 -116 118 3 117 3 3 113 3 112 -121 0 -120 0 0 -115z"/>
<path d="M867 2033 c-4 -3 -7 -48 -7 -100 0 -93 0 -93 25 -93 23 0 25 3 25 53
l1 52 25 -42 c14 -24 32 -43 40 -43 8 0 25 17 37 38 l22 37 3 -47 c3 -43 5
-48 28 -48 24 0 24 1 24 101 0 98 -1 100 -22 97 -15 -2 -33 -21 -53 -55 -16
-29 -33 -53 -37 -53 -3 0 -21 25 -38 55 -29 51 -54 67 -73 48z"/>
<path d="M1197 2033 c-4 -3 -7 -48 -7 -100 l0 -93 80 0 c73 0 80 2 80 20 0 17
-7 20 -50 20 -43 0 -50 3 -50 20 0 17 7 20 45 20 38 0 45 3 45 20 0 17 -7 20
-45 20 -33 0 -45 4 -45 14 0 11 14 16 48 18 40 3 47 6 50 26 3 21 0 22 -71 22
-40 0 -77 -3 -80 -7z"/>
<path d="M1447 2033 c-4 -3 -7 -48 -7 -100 l0 -93 30 0 c29 0 30 1 30 51 l0
52 42 -52 c28 -35 49 -51 65 -51 23 0 23 2 23 100 0 99 0 100 -25 100 -22 0
-24 -4 -27 -55 l-3 -55 -44 55 c-40 50 -67 66 -84 48z"/>
<path d="M1712 2018 c2 -17 11 -24 31 -26 27 -3 27 -4 27 -78 l0 -74 30 0 30
0 0 75 0 75 30 0 c25 0 30 4 30 25 0 25 -1 25 -91 25 -88 0 -90 -1 -87 -22z"/>
<path d="M2008 2024 c-55 -29 -65 -102 -22 -153 68 -82 209 -19 190 85 -14 70
-100 105 -168 68z m102 -49 c6 -8 10 -29 8 -47 -2 -25 -9 -35 -31 -42 -46 -17
-85 20 -73 68 10 42 68 54 96 21z"/>
<path d="M2270 1940 l0 -100 25 0 c20 0 25 5 25 25 0 18 5 25 20 25 11 0 27
-11 36 -25 11 -17 25 -25 46 -25 l29 0 -22 31 c-13 19 -18 34 -12 38 22 14 33
50 24 74 -15 40 -49 57 -113 57 l-58 0 0 -100z m118 24 c2 -15 -4 -23 -20 -28
-41 -11 -48 -7 -48 25 0 28 2 30 33 27 24 -2 33 -8 35 -24z"/>
<path d="M2680 1940 l0 -100 25 0 c23 0 25 4 25 40 l0 40 40 0 40 0 0 -40 c0
-38 2 -40 30 -40 l31 0 -3 98 -3 97 -27 3 c-27 3 -28 1 -28 -37 l0 -41 -40 0
-40 0 0 40 c0 36 -2 40 -25 40 l-25 0 0 -100z"/>
<path d="M2970 1940 l0 -100 80 0 c73 0 80 2 80 20 0 18 -7 20 -55 20 -48 0
-55 2 -55 20 0 17 7 20 45 20 38 0 45 3 45 20 0 17 -7 20 -45 20 -33 0 -45 4
-45 15 0 11 12 15 50 15 47 0 50 2 50 25 0 24 -2 25 -75 25 l-75 0 0 -100z"/>
<path d="M3220 1940 l0 -100 75 0 c68 0 75 2 75 20 0 17 -7 20 -50 20 l-50 0
0 80 c0 79 0 80 -25 80 l-25 0 0 -100z"/>
<path d="M3450 1940 l0 -100 25 0 c20 0 25 5 25 25 0 21 5 25 29 25 69 0 111
41 97 94 -9 35 -54 56 -121 56 l-55 0 0 -100z m120 26 c0 -16 -7 -26 -22 -30
-41 -10 -48 -7 -48 24 0 28 3 30 35 30 30 0 35 -3 35 -24z"/>
<path d="M3720 1940 l0 -100 80 0 c73 0 80 2 80 20 0 18 -7 20 -55 20 -48 0
-55 2 -55 20 0 17 7 20 45 20 38 0 45 3 45 20 0 17 -7 20 -45 20 -33 0 -45 4
-45 15 0 11 12 15 50 15 47 0 50 2 50 25 0 24 -2 25 -75 25 l-75 0 0 -100z"/>
<path d="M3970 1940 l0 -100 25 0 c20 0 25 5 25 25 0 18 5 25 20 25 11 0 27
-11 36 -25 11 -17 25 -25 46 -25 l29 0 -22 31 c-13 19 -18 34 -12 38 22 14 33
50 24 74 -15 40 -49 57 -113 57 l-58 0 0 -100z m118 24 c2 -15 -4 -23 -20 -28
-41 -11 -48 -7 -48 25 0 28 2 30 33 27 24 -2 33 -8 35 -24z"/>
<path d="M1863 1490 c-1 -25 1 -37 4 -27 2 9 13 17 23 17 10 0 21 -8 23 -17 3
-10 5 2 4 27 0 25 -2 35 -4 23 -3 -14 -12 -23 -23 -23 -11 0 -20 9 -23 23 -2
12 -4 2 -4 -23z"/>
<path d="M1967 1523 c-4 -3 -7 -21 -7 -40 0 -31 2 -33 33 -32 23 1 26 3 10 6
-27 5 -30 20 -5 26 16 4 16 5 0 6 -26 2 -22 29 5 34 20 4 20 4 -4 6 -14 0 -29
-2 -32 -6z"/>
<path d="M2140 1488 c0 -24 4 -38 8 -32 4 6 17 14 30 18 25 8 30 41 6 50 -36
14 -44 7 -44 -36z m45 12 c0 -8 -8 -16 -17 -18 -13 -2 -18 3 -18 18 0 15 5 20
18 18 9 -2 17 -10 17 -18z"/>
<path d="M2234 1515 c-7 -18 3 -35 22 -35 23 0 16 -18 -8 -23 -20 -4 -19 -4 5
-6 20 -1 27 4 27 18 0 10 -9 21 -20 24 -11 3 -20 11 -20 17 0 7 8 10 20 7 11
-3 18 -1 14 4 -8 14 -34 11 -40 -6z"/>
<path d="M2363 1523 c12 -3 17 -16 19 -41 l1 -37 4 35 c3 19 10 38 16 42 7 4
-4 7 -23 7 -19 -1 -27 -3 -17 -6z"/>
<path d="M2446 1508 c-19 -27 -5 -58 27 -58 43 0 60 35 31 64 -21 22 -40 20
-58 -6z m53 -2 c17 -20 2 -48 -23 -44 -24 3 -34 37 -14 49 18 12 24 11 37 -5z"/>
<path d="M2600 1491 c0 -39 1 -41 31 -41 29 0 30 2 27 38 -3 32 -7 37 -30 40
-27 3 -28 1 -28 -37z m43 14 c1 -5 -6 -11 -15 -13 -11 -2 -18 3 -18 13 0 17
30 18 33 0z m7 -35 c0 -5 -9 -10 -20 -10 -11 0 -20 5 -20 10 0 6 9 10 20 10
11 0 20 -4 20 -10z"/>
<path d="M2700 1490 c0 -37 2 -40 28 -39 23 2 24 2 5 6 -13 2 -23 8 -23 13 0
5 10 11 23 13 l22 4 -22 2 c-13 0 -23 7 -23 15 0 8 10 17 23 19 19 4 18 4 -5
6 -26 1 -28 -2 -28 -39z"/>
<path d="M2837 1523 c-4 -3 -7 -21 -7 -40 0 -31 2 -33 35 -33 33 0 35 2 35 34
0 22 -6 36 -16 40 -20 8 -39 8 -47 -1z m46 -18 c1 -5 -6 -11 -15 -13 -11 -2
-18 3 -18 13 0 17 30 18 33 0z m7 -35 c0 -5 -9 -10 -20 -10 -11 0 -20 5 -20
10 0 6 9 10 20 10 11 0 20 -4 20 -10z"/>
<path d="M2937 1523 c-4 -3 -7 -21 -7 -40 0 -31 2 -33 33 -32 23 1 26 3 10 6
-27 5 -30 20 -5 26 16 4 16 5 0 6 -26 2 -22 29 5 34 20 4 20 4 -4 6 -14 0 -29
-2 -32 -6z"/>
<path d="M3027 1523 c-14 -13 -6 -30 21 -43 l27 -13 -30 -8 -30 -8 29 2 c38 3
45 24 11 37 -15 6 -23 15 -20 21 4 6 13 8 21 5 8 -3 14 -1 14 4 0 11 -33 14
-43 3z"/>
<path d="M3108 1523 c6 -2 12 -20 12 -39 0 -19 5 -34 10 -34 6 0 10 15 10 34
0 19 6 37 13 39 6 3 -4 5 -23 5 -19 0 -29 -2 -22 -5z"/>
<path d="M2050 1485 c0 -33 2 -35 33 -34 23 1 26 3 10 6 -18 3 -23 11 -23 34
0 16 -4 29 -10 29 -5 0 -10 -16 -10 -35z"/>
</g>
</svg>
